<svg xmlns="http://www.w3.org/2000/svg" xmlns:xlink="http://www.w3.org/1999/xlink" width="300" height="46" viewBox="0 0 300 46">
  <defs>
    <clipPath id="clip-custom_1">
      <rect width="300" height="46"/>
    </clipPath>
  </defs>
  <g id="custom_1" data-name="custom – 1" clip-path="url(#clip-custom_1)">
    <g id="layer1" transform="translate(290.912 -474.119)">
      <path id="path123361-8" d="M521.323,480.213s13.48,9.958,14.436,10.667c-.972.695-15.708,11.309-15.708,11.309h13.561l8.5-6.477c.509.39,8.5,6.477,8.5,6.477h13.561l-6.3-4.54h19.023a6.683,6.683,0,0,0,0-13.363H557.373c2.963-2.188,5.52-4.073,5.52-4.073H549.752s-7.131,5.533-7.644,5.929l-7.656-5.929Zm2.813.934h10.013c.237.185,7.959,6.15,7.959,6.15s7.722-5.966,7.959-6.15h10.013c-1.917,1.416-13.188,9.733-13.188,9.733l14.4,10.375H550.907c-.235-.177-8.8-6.711-8.8-6.711s-8.565,6.533-8.8,6.711H522.922l14.4-10.375Zm31.977,4.073h20.773a5.755,5.755,0,0,1,0,11.507H556.579c-3.775-2.72-7.642-5.5-8.123-5.847C548.939,490.523,552.6,487.815,556.113,485.22Zm-.187,2.019,2.684,7.376.035.093h2.393l1.517-5.147,1.529,5.147h2.392l2.708-7.469h-2.334l-1.564,4.948-1.447-4.948h-2.556l-1.459,4.948-1.552-4.948Zm14.331,0v7.469h6.757a3.652,3.652,0,0,0,2.206-.619,1.9,1.9,0,0,0-.245-3.268,1.694,1.694,0,0,0,.665-1.377,1.845,1.845,0,0,0-.549-1.307,3.031,3.031,0,0,0-2.287-.9Zm2.136,1.646h4.4a.723.723,0,0,1,.49.163.485.485,0,0,1,.187.4.6.6,0,0,1-.607.6h-4.47Zm0,2.813h4.517a1.135,1.135,0,0,1,.712.2.608.608,0,0,1,.245.513c0,.276-.1.654-.992.654h-4.482Z" transform="translate(-505.598 -0.685)" fill="#999"/>
      <path id="path123373-7" d="M331.617,479.119a10.728,10.728,0,0,0-5.166,1.307,11.462,11.462,0,0,0-4.023,3.664,11.458,11.458,0,0,0,0,12.884,10.7,10.7,0,0,0,9.213,4.937,10.877,10.877,0,0,0,5.189-1.284,11.473,11.473,0,0,0,3.965-16.572,11.521,11.521,0,0,0-4.012-3.63A10.725,10.725,0,0,0,331.617,479.119Zm-46.974.058a16.831,16.831,0,0,0-9.761,2.964l-.3.21,2.216,3.84.327-.187a14.073,14.073,0,0,1,7-1.891,9.212,9.212,0,0,1,3.743.619c.792.369,1.178.819,1.178,1.366,0,1.23-1.334,1.844-3.965,1.844h-4.5v4.82h3.79a14.552,14.552,0,0,1,4.338.455c1.1.366,1.224.995,1.224,1.435,0,1.6-1.773,2.416-5.283,2.416a11.292,11.292,0,0,1-8.513-3.349l-.268-.292-3.347,3.385.292.28a16.331,16.331,0,0,0,11.72,4.762c3.375,0,6.021-.608,7.86-1.809a5.919,5.919,0,0,0,2.857-5.205,5.231,5.231,0,0,0-3.055-4.867,5.3,5.3,0,0,0,2.076-4.341,5.424,5.424,0,0,0-2.6-4.68,12.376,12.376,0,0,0-7.02-1.774Zm-26.507.35L247.278,501.5h6.449l1.621-3.536h7.405l-2.3-4.808h-2.927l2.752-6.01L267.22,501.5h6.461L262.4,479.527Zm42.414,0-3.335,11.122,4.1,2.252.187-.093a12.985,12.985,0,0,1,6.251-1.4c4.048,0,6.1.93,6.1,2.766a2.31,2.31,0,0,1-1.283,2.1,8.119,8.119,0,0,1-4.035.817,11.987,11.987,0,0,1-7.965-3l-.233-.187-4.035,2.848.35.339a16.8,16.8,0,0,0,11.942,4.82,12.348,12.348,0,0,0,7.545-2.124,6.725,6.725,0,0,0,2.892-5.613,6.45,6.45,0,0,0-2.869-5.427,12.622,12.622,0,0,0-7.545-2.042,16.541,16.541,0,0,0-5.668.875l1.131-3.174h13.493v-4.878ZM331.64,484a5.659,5.659,0,0,1,4.373,1.821,6.677,6.677,0,0,1,1.7,4.715,6.53,6.53,0,0,1-1.7,4.633,6.233,6.233,0,0,1-8.77.012,6.511,6.511,0,0,1-1.7-4.645,6.666,6.666,0,0,1,1.7-4.727A5.707,5.707,0,0,1,331.64,484Z" transform="translate(-334.694)" fill="#1e3174"/>
      <path id="path124354" d="M-178.862,506.662h-11.783v-6.617h11.787a3.425,3.425,0,0,1,3.5,3.291,3.438,3.438,0,0,1-3.507,3.326m-11.781-19.4h11.572a2.9,2.9,0,0,1,2.93,2.84,2.949,2.949,0,0,1-3,2.858h-11.506v-5.7Zm18.437,9.254c2.176-1.536,3-4.077,3-6.876a9.66,9.66,0,0,0-9.856-9.475h-19.659v33.59h20.437l0,.016c5.734,0,10.513-4.434,10.513-9.856a8.411,8.411,0,0,0-4.433-7.4m30.321-16.429,0,18.889c0,5.77-3.37,8.2-7.516,8.2s-7.492-2.414-7.492-8.191V480.085h-8.366v18.944c0,12.079,7.092,15.6,15.861,15.6s15.875-3.52,15.875-15.6l0-18.944h-8.361Zm29.36,13.092c-6.769-1.472-9.056-2.123-9.056-4.274,0-1.9,2.452-2.848,6.323-2.848a23.3,23.3,0,0,1,10.662,3.111l2.639-6.836a37.242,37.242,0,0,0-14.9-3.2c-8.188,0-13.306,4.79-13.306,10.647s4.214,8.443,12.563,10.212c6.479,1.372,8.232,2.191,8.232,4.207s-2.6,2.761-6.108,2.761c-4.542,0-8.913-1.514-13.033-3.287L-131,510.339c4.926,2.285,10.039,4.115,16.13,4.115,10.157,0,14.3-4.858,14.3-10.517,0-5.033-3.485-8.918-11.954-10.76m-157.43-13.013-16.958,33.586h10.069l2.534-5.4h11.568l-3.595-7.358h-4.57l4.3-9.186,10.836,21.946h10.1l-17.617-33.592h-6.664Zm68.13,11.168c0-6.121-4.188-11.085-12.812-11.085h-17.416v33.593h8.075l0-26.5h9.9c2.926,0,4.144,1.813,4.144,3.972s-1.278,3.892-4.206,3.892h-6.926l10.479,18.632h8.284s-7.169-12.176-7.131-12.184a10.188,10.188,0,0,0,7.611-10.322m-42.122,22.436h8.348V480.183h-8.348Z" transform="translate(0 -0.009)" fill="#7093cb"/>
    </g>
  </g>
</svg>
