<svg xmlns="http://www.w3.org/2000/svg" xmlns:xlink="http://www.w3.org/1999/xlink" width="300" height="300" viewBox="0 0 300 300">
  <defs>
    <clipPath id="clip-custom_1">
      <rect width="300" height="300"/>
    </clipPath>
  </defs>
  <g id="custom_1" data-name="custom – 1" clip-path="url(#clip-custom_1)">
    <g id="layer1" transform="translate(291.765 -346.819)">
      <path id="path123361-8" d="M521.311,480.213s13.358,9.868,14.306,10.57c-.963.689-15.566,11.206-15.566,11.206h13.438l8.419-6.419c.5.386,8.419,6.419,8.419,6.419h13.438l-6.245-4.5h18.851a6.622,6.622,0,0,0,0-13.242H557.035c2.936-2.168,5.47-4.036,5.47-4.036H549.483s-7.066,5.482-7.575,5.875l-7.586-5.875H521.311Zm2.787.925h9.923c.235.183,7.887,6.095,7.887,6.095s7.652-5.912,7.887-6.095h9.923c-1.9,1.4-13.068,9.645-13.068,9.645l14.271,10.281H550.628c-.233-.176-8.72-6.65-8.72-6.65s-8.488,6.474-8.72,6.65H522.9l14.271-10.281Zm31.688,4.036h20.586a5.7,5.7,0,0,1,0,11.4H556.249c-3.741-2.7-7.573-5.452-8.049-5.794C548.678,490.429,552.3,487.747,555.786,485.174Zm-.185,2,2.66,7.309.035.093h2.371l1.5-5.1,1.515,5.1h2.371l2.683-7.4h-2.313l-1.55,4.9-1.434-4.9h-2.533l-1.446,4.9-1.538-4.9Zm14.2,0v7.4h6.7a3.619,3.619,0,0,0,2.186-.613,1.884,1.884,0,0,0-.243-3.238,1.679,1.679,0,0,0,.659-1.365,1.829,1.829,0,0,0-.543-1.3,3,3,0,0,0-2.267-.89Zm2.116,1.631h4.36a.717.717,0,0,1,.486.162.481.481,0,0,1,.185.393.592.592,0,0,1-.6.59h-4.429Zm0,2.787h4.476a1.124,1.124,0,0,1,.705.2.6.6,0,0,1,.243.509c0,.273-.1.648-.983.648h-4.441Z" transform="translate(-508.325 -0.689)" fill="#999"/>
      <path id="path123373-7" d="M330.853,479.119a10.63,10.63,0,0,0-5.119,1.3,11.358,11.358,0,0,0-3.987,3.631,11.354,11.354,0,0,0,0,12.768,10.6,10.6,0,0,0,9.13,4.892,10.777,10.777,0,0,0,5.143-1.272,11.369,11.369,0,0,0,3.929-16.422,11.418,11.418,0,0,0-3.975-3.6A10.628,10.628,0,0,0,330.853,479.119Zm-46.549.058a16.678,16.678,0,0,0-9.673,2.937l-.3.208,2.2,3.8.324-.185a13.945,13.945,0,0,1,6.934-1.874,9.126,9.126,0,0,1,3.71.613c.785.366,1.167.812,1.167,1.353,0,1.219-1.322,1.827-3.929,1.827h-4.461v4.776h3.756a14.425,14.425,0,0,1,4.3.451c1.086.363,1.213.986,1.213,1.423,0,1.588-1.757,2.394-5.235,2.394a11.19,11.19,0,0,1-8.436-3.319l-.266-.289-3.317,3.354.289.278a16.183,16.183,0,0,0,11.614,4.718c3.345,0,5.967-.6,7.789-1.793a5.866,5.866,0,0,0,2.831-5.158,5.184,5.184,0,0,0-3.028-4.823,5.251,5.251,0,0,0,2.057-4.3,5.375,5.375,0,0,0-2.577-4.638,12.264,12.264,0,0,0-6.957-1.758Zm-26.267.347L247.278,501.3h6.391l1.606-3.5h7.338l-2.277-4.765h-2.9l2.727-5.956L267.04,501.3h6.4l-11.175-21.777h-4.23Zm42.03,0-3.305,11.021,4.068,2.232.185-.093a12.868,12.868,0,0,1,6.194-1.388c4.012,0,6.044.921,6.044,2.741a2.289,2.289,0,0,1-1.271,2.082,8.044,8.044,0,0,1-4,.81,11.878,11.878,0,0,1-7.893-2.972l-.231-.185-4,2.822.347.335a16.651,16.651,0,0,0,11.834,4.776,12.237,12.237,0,0,0,7.477-2.1,6.664,6.664,0,0,0,2.866-5.563,6.392,6.392,0,0,0-2.843-5.378,12.508,12.508,0,0,0-7.477-2.024,16.4,16.4,0,0,0-5.616.867l1.121-3.146H316.94v-4.834Zm30.809,4.429a5.608,5.608,0,0,1,4.334,1.8,6.616,6.616,0,0,1,1.687,4.672,6.471,6.471,0,0,1-1.687,4.591,6.177,6.177,0,0,1-8.69.012,6.453,6.453,0,0,1-1.687-4.6,6.605,6.605,0,0,1,1.687-4.684A5.655,5.655,0,0,1,330.877,483.953Z" transform="translate(-336.499 0)" fill="#1e3174"/>
      <path id="path124354" d="M-179.84,506.413h-11.676v-6.557h11.68a3.394,3.394,0,0,1,3.471,3.261,3.407,3.407,0,0,1-3.475,3.3m-11.674-19.229h11.467a2.872,2.872,0,0,1,2.9,2.815,2.922,2.922,0,0,1-2.968,2.833h-11.4v-5.647Zm18.27,9.17c2.156-1.522,2.972-4.04,2.972-6.814a9.572,9.572,0,0,0-9.767-9.389H-199.52v33.286h20.252v.016c5.682,0,10.418-4.394,10.418-9.766a8.334,8.334,0,0,0-4.392-7.331m30.047-16.28,0,18.718c0,5.718-3.339,8.122-7.448,8.122s-7.424-2.392-7.424-8.116V480.077h-8.29v18.773c0,11.969,7.027,15.457,15.718,15.457s15.731-3.488,15.731-15.457l0-18.773H-143.2ZM-114.1,493.05c-6.708-1.459-8.974-2.1-8.974-4.236,0-1.879,2.43-2.823,6.266-2.823a23.088,23.088,0,0,1,10.566,3.083l2.615-6.774a36.9,36.9,0,0,0-14.763-3.168c-8.114,0-13.185,4.747-13.185,10.55s4.175,8.367,12.449,10.12c6.42,1.36,8.158,2.171,8.158,4.169s-2.578,2.736-6.053,2.736c-4.5,0-8.832-1.5-12.915-3.257l-2.469,6.607c4.882,2.264,9.949,4.078,15.984,4.078,10.065,0,14.167-4.814,14.167-10.422,0-4.988-3.454-8.837-11.846-10.663m-156.005-12.9-16.8,33.283h9.978l2.511-5.351h11.463l-3.562-7.291h-4.529l4.26-9.1,10.737,21.748h10.006L-263.5,480.151h-6.6Zm67.513,11.067c0-6.066-4.15-10.984-12.7-10.984h-17.258v33.289h8l0-26.256h9.812c2.9,0,4.106,1.8,4.106,3.936s-1.266,3.857-4.168,3.857h-6.864l10.384,18.463h8.209s-7.1-12.066-7.067-12.074a10.1,10.1,0,0,0,7.542-10.228m-41.741,22.233h8.272V480.173h-8.272Z" transform="translate(0 -0.009)" fill="#7093cb"/>
    </g>
  </g>
</svg>
